<svg version="1.1" id="Layer_1" xmlns="http://www.w3.org/2000/svg" x="0" y="0" viewBox="0 0 470.2 97.8" xml:space="preserve"><style>.st1{fill:#fff}.st2{fill:#222}.st3{fill:#808285}</style><linearGradient id="SVGID_1_" gradientUnits="userSpaceOnUse" x1="0" y1="97.795" x2="97.795" y2="0"><stop offset="0" stop-color="#22b99f"/><stop offset=".214" stop-color="#24b4a1"/><stop offset=".527" stop-color="#21aaa8"/><stop offset=".899" stop-color="#1d9ab1"/><stop offset="1" stop-color="#1c95b4"/></linearGradient><path fill="url(#SVGID_1_)" d="M0 0h97.8v97.8H0z"/><path class="st1" d="M42.9 48.5H32.6l-3.9 19.1c-.1.6-.2 1.1-.3 1.6-.1.4-.1.8-.1 1.2 0 1 .3 1.7.8 2.1.5.4 1.5.6 2.9.6.9 0 2.1-.1 3.6-.3 1.4-.2 2.7-.4 3.9-.7l-1.6 8.1c-1.3.4-2.7.6-4.3.8-1.5.2-3 .3-4.4.3-1.9 0-3.5-.2-4.9-.6-1.4-.4-2.5-1-3.4-1.7-.9-.7-1.5-1.6-2-2.7-.4-1.1-.6-2.3-.6-3.6 0-.5 0-1 .1-1.7.1-.6.2-1.4.4-2.3L23 48.6h-7.4l1.7-8h7.4L27 29.5h9.7l-2.3 11.1h10.3l-1.8 7.9zM62.1 33.3c-.5 2.2-1 4.2-1.5 6.1h.2c.5-.6 1.1-1.1 1.8-1.7.7-.5 1.5-1 2.3-1.5.9-.4 1.8-.8 2.8-1.1 1-.3 2.1-.4 3.3-.4 1.7 0 3.4.3 4.9.9 1.5.6 2.9 1.5 4 2.7 1.1 1.2 2 2.7 2.7 4.5.7 1.8 1 3.9 1 6.3 0 2.1-.2 4.2-.6 6.4-.4 2.2-1 4.3-1.8 6.4-.8 2.1-1.9 4-3.1 5.9-1.3 1.8-2.8 3.4-4.5 4.8-1.7 1.4-3.7 2.5-6 3.3-2.2.8-4.7 1.2-7.5 1.2-2.2 0-4.1-.3-5.8-1-1.7-.7-3.1-1.6-4.3-2.7-1.2-1.1-2.1-2.5-2.7-4.1-.6-1.6-.9-3.2-.9-5 0-.7 0-1.5.1-2.2.1-.8.3-1.8.5-3l9.1-43.4h9.8l-3.8 17.6zm-5.6 27.1c-.2.8-.3 1.5-.3 1.9 0 .5-.1.9-.1 1.2 0 1.7.4 3.1 1.2 4.1.8 1 2 1.5 3.7 1.5 1.4 0 2.6-.3 3.8-.9 1.1-.6 2.2-1.4 3.1-2.4.9-1 1.8-2.1 2.5-3.4.7-1.3 1.3-2.7 1.8-4.1.5-1.4.9-2.9 1.1-4.3.3-1.5.4-2.8.4-4.2 0-.9-.1-1.8-.3-2.7-.2-.8-.5-1.6-1-2.3-.4-.7-1-1.2-1.7-1.5-.7-.4-1.6-.6-2.6-.6-.9 0-1.9.2-2.9.6-1 .4-2 1-3 1.9-.9.9-1.8 2-2.5 3.3-.8 1.3-1.3 2.9-1.7 4.8l-1.5 7.1z"/><g><path class="st2" d="M132.3 50v-.4-.8c0-.3.1-.8.1-1.3.1-.5.1-1.3.3-2.1l1.5-12h-2.4c-.4 0-.7-.1-.9-.4-.2-.3-.3-.6-.2-1.1l.4-2.9 4.2-.8 2.3-7.2c.3-.8.8-1.2 1.6-1.2h4l-1.1 8.5h6.5l-.6 5.2h-6.5l-1.4 11.6c-.1.7-.2 1.3-.2 1.8-.1.4-.1.8-.1 1v.7c0 .6.1 1.1.4 1.5.3.4.7.6 1.3.6.3 0 .6 0 .8-.1l.6-.3c.2-.1.3-.2.5-.3.1-.1.3-.1.5-.1s.4 0 .5.1c.1.1.2.3.3.5l1.6 3.6c-1 .8-2.2 1.4-3.4 1.8-1.2.4-2.5.6-3.8.6-2.1 0-3.7-.6-4.9-1.7s-1.8-2.8-1.9-4.8zM160.3 56.2c-1.5 0-3-.3-4.3-.8-1.3-.5-2.5-1.3-3.5-2.3-1-1-1.7-2.2-2.3-3.7-.5-1.5-.8-3.1-.8-5 0-2.4.4-4.7 1.2-6.8.8-2.1 1.9-3.9 3.2-5.4 1.4-1.5 2.9-2.7 4.7-3.6s3.7-1.3 5.7-1.3c1.5 0 3 .3 4.3.8 1.3.5 2.5 1.3 3.4 2.3 1 1 1.7 2.2 2.3 3.7.6 1.5.8 3.1.8 5 0 2.4-.4 4.7-1.2 6.7-.8 2.1-1.9 3.9-3.2 5.4-1.4 1.5-2.9 2.7-4.7 3.6-1.7 1-3.6 1.4-5.6 1.4zm.7-5.6c1 0 2-.3 2.8-.9.8-.6 1.5-1.4 2.1-2.5.6-1 1-2.2 1.3-3.6.3-1.4.5-2.8.5-4.3 0-2.2-.3-3.7-1-4.7s-1.7-1.4-3.1-1.4c-1 0-2 .3-2.8.9-.8.6-1.5 1.4-2.1 2.4-.6 1-1 2.2-1.3 3.6s-.5 2.8-.5 4.4c0 2.1.3 3.7 1 4.7.7.9 1.7 1.4 3.1 1.4zM177.6 55.8L181 28h3.8c.8 0 1.4.2 1.8.6.4.4.6 1 .6 1.8l-.1 2.4c1.2-1.7 2.5-3 3.9-3.9 1.4-.8 2.8-1.3 4.4-1.3 1.6 0 3 .5 4 1.6s1.6 2.7 1.8 4.7c1.3-2.2 2.7-3.8 4.2-4.8s3.2-1.5 5.1-1.5c1.2 0 2.2.2 3.1.7.9.5 1.7 1.2 2.2 2.1.6.9 1 2 1.2 3.3.2 1.3.2 2.8 0 4.5l-2.1 17.7h-7.3l2.1-17.7c.2-1.7.2-2.9-.1-3.6s-.9-1-1.8-1c-.6 0-1.2.2-1.8.5-.6.3-1.1.8-1.7 1.4-.5.6-1 1.4-1.5 2.3-.5.9-.8 1.9-1.2 3l-1.8 15h-7.3l2.1-17.7c.2-1.7.2-2.9-.1-3.6-.3-.7-.9-1-1.8-1-.6 0-1.3.2-1.9.5-.6.4-1.2.9-1.7 1.5s-1 1.4-1.5 2.4c-.4.9-.8 2-1.1 3.1L185 55.8h-7.4zM230.7 32.9c1.3-1.7 2.7-3 4.2-3.9 1.5-1 3.2-1.4 4.9-1.4 1.2 0 2.2.2 3.1.6.9.4 1.8 1 2.4 1.9.7.9 1.2 1.9 1.6 3.3.4 1.3.6 2.9.6 4.7 0 1.6-.2 3.2-.5 4.7s-.8 3-1.4 4.3c-.6 1.4-1.3 2.6-2.2 3.7-.8 1.1-1.8 2.1-2.8 2.9-1 .8-2.1 1.5-3.2 1.9-1.1.5-2.3.7-3.5.7-1.4 0-2.6-.3-3.7-.8s-2-1.3-2.8-2.2l-.2.6c-.2.7-.5 1.2-.9 1.5-.4.3-.9.5-1.7.5h-4.1l4.9-40.3h7.3l-2 17.3zm-2 16.3c.6.6 1.2.9 2 1.2.7.2 1.4.3 2.1.3 1.1 0 2.1-.3 3-1 .9-.7 1.7-1.6 2.3-2.7.6-1.1 1.2-2.4 1.5-3.8.4-1.4.5-2.9.5-4.3 0-1.9-.3-3.2-.9-4.1s-1.4-1.3-2.4-1.3c-.7 0-1.3.2-2 .7-.7.5-1.4 1.1-2 2-.7.8-1.3 1.8-1.8 2.9-.6 1.1-1 2.3-1.4 3.6l-.9 6.5zM259.5 34.2c.7-1.3 1.4-2.4 2.2-3.3.8-.9 1.6-1.6 2.4-2.1.8-.5 1.7-.8 2.6-.9s1.8.1 2.7.5l-1.4 7c-1.1-.4-2.1-.6-3-.6-.9.1-1.8.4-2.6 1.1-.8.6-1.5 1.6-2.1 2.8-.6 1.2-1.2 2.8-1.6 4.7l-1.5 12.5h-7.3l3.4-27.9h3.8c.8 0 1.4.2 1.8.6.4.4.6 1 .6 1.8v3.8zM279.8 56.2c-1.5 0-3-.3-4.3-.8-1.3-.5-2.5-1.3-3.5-2.3-1-1-1.7-2.2-2.3-3.7-.5-1.5-.8-3.1-.8-5 0-2.4.4-4.7 1.2-6.8.8-2.1 1.9-3.9 3.2-5.4 1.4-1.5 2.9-2.7 4.7-3.6 1.8-.9 3.7-1.3 5.7-1.3 1.5 0 3 .3 4.3.8s2.5 1.3 3.4 2.3c1 1 1.7 2.2 2.3 3.7.6 1.5.8 3.1.8 5 0 2.4-.4 4.7-1.2 6.7-.8 2.1-1.9 3.9-3.2 5.4-1.4 1.5-2.9 2.7-4.7 3.6-1.7 1-3.6 1.4-5.6 1.4zm.6-5.6c1 0 2-.3 2.8-.9.8-.6 1.5-1.4 2.1-2.5s1-2.2 1.3-3.6c.3-1.4.5-2.8.5-4.3 0-2.2-.3-3.7-1-4.7s-1.7-1.4-3.1-1.4c-1 0-2 .3-2.8.9-.8.6-1.5 1.4-2.1 2.4-.6 1-1 2.2-1.3 3.6-.3 1.4-.5 2.8-.5 4.4 0 2.1.3 3.7 1 4.7.7.9 1.7 1.4 3.1 1.4zM324.1 28l-3.4 27.8H317c-1.8 0-2.6-.8-2.6-2.5l.1-2.5c-1.4 1.8-2.9 3.2-4.5 4.1-1.6.9-3.3 1.3-5 1.3-1.2 0-2.2-.2-3.2-.7-.9-.5-1.7-1.2-2.3-2.1-.6-.9-1-2-1.3-3.3-.3-1.3-.3-2.8-.1-4.5l2.1-17.7h7.5l-2.1 17.7c-.2 1.7-.1 2.9.3 3.6.4.7 1 1 2 1 .6 0 1.3-.2 2-.6.7-.4 1.4-.9 2-1.6.6-.7 1.2-1.5 1.8-2.5.5-1 1-2 1.4-3.2l1.8-14.4h7.2zM345.7 53.4c-.8.7-1.7 1.2-2.6 1.6s-1.8.7-2.8.9c-1 .2-2 .3-3.2.3-1.6 0-3.1-.3-4.4-.8-1.3-.5-2.4-1.3-3.3-2.3-.9-1-1.6-2.2-2.1-3.7-.5-1.4-.7-3.1-.7-4.8 0-2.3.4-4.4 1.1-6.5.7-2 1.8-3.8 3.1-5.4 1.3-1.6 2.9-2.8 4.7-3.7 1.8-.9 3.8-1.4 5.9-1.4 1.9 0 3.4.3 4.8 1 1.3.6 2.5 1.6 3.5 3l-2.4 2.8c-.2.2-.4.4-.6.5-.2.1-.5.2-.8.2-.3 0-.6-.1-.9-.3-.3-.2-.5-.4-.9-.6-.3-.2-.7-.4-1.1-.6-.5-.2-1-.3-1.8-.3-.9 0-1.8.3-2.7.8s-1.6 1.3-2.3 2.2c-.7 1-1.2 2.1-1.6 3.5-.4 1.4-.6 2.9-.6 4.7 0 2 .4 3.5 1.3 4.5s2 1.5 3.3 1.5c1 0 1.7-.1 2.3-.4.6-.3 1.1-.6 1.6-.9l1.2-.9c.4-.3.8-.4 1.2-.4.3 0 .5.1.7.2.2.1.4.3.6.5l1.9 2.3c-.7 1-1.6 1.9-2.4 2.5zM363.2 15.6l-2.8 22.8h.6c.4 0 .8-.1 1.1-.2.3-.1.6-.4.9-.7l6.6-8.2c.3-.4.7-.7 1.1-.9.4-.2.8-.3 1.4-.3h6.7l-8.6 10.2c-.4.4-.7.8-1.1 1.1l-1.2.9c.4.3.7.6.9 1 .2.4.5.8.7 1.3l6.3 13.4h-6.5c-.5 0-1-.1-1.4-.3s-.6-.5-.8-1l-4.7-10.2c-.2-.4-.4-.7-.6-.8-.2-.1-.6-.2-1.1-.2h-.9l-1.5 12.6H351l5-40.3h7.2zM384.7 44.4c0 4.1 1.7 6.2 5.2 6.2 1.2 0 2.1-.1 2.8-.4.7-.3 1.4-.6 1.9-1s1-.7 1.4-1c.4-.3.9-.4 1.5-.4.3 0 .5.1.7.2.2.1.4.3.6.5l1.9 2.3c-1 1-1.9 1.8-2.8 2.5-.9.7-1.9 1.3-2.9 1.7s-2 .8-3.1 1-2.3.3-3.6.3c-1.6 0-3.1-.3-4.5-.8-1.3-.6-2.5-1.3-3.5-2.4-1-1-1.7-2.2-2.2-3.7-.5-1.4-.8-3-.8-4.8 0-1.5.2-2.9.5-4.3s.8-2.7 1.4-4c.6-1.3 1.4-2.4 2.2-3.5.9-1.1 1.9-2 3-2.7 1.1-.8 2.3-1.4 3.7-1.8s2.7-.6 4.2-.6 2.7.2 3.9.6c1.1.4 2.1 1 2.8 1.6.8.7 1.3 1.4 1.7 2.3.4.8.6 1.7.6 2.5 0 1.2-.3 2.4-.8 3.4s-1.4 2-2.6 2.8c-1.3.8-3 1.5-5.1 2.1-2.1.5-4.8 1-8.1 1.4zm7.3-11.7c-.8 0-1.5.2-2.2.5s-1.3.8-1.9 1.4c-.6.6-1.1 1.3-1.5 2.2-.4.8-.8 1.8-1.1 2.8 2-.3 3.6-.6 4.8-.9 1.2-.3 2.2-.7 2.9-1.1.7-.4 1.1-.8 1.4-1.3.2-.4.3-.9.3-1.5 0-.3-.1-.5-.2-.8-.1-.3-.3-.5-.5-.7-.2-.2-.5-.4-.8-.5-.3 0-.7-.1-1.2-.1zM403.6 51.9c0-.6.1-1.2.3-1.7.2-.5.5-1 .9-1.4.4-.4.8-.7 1.4-.9s1.1-.3 1.8-.3c.6 0 1.2.1 1.7.3s1 .5 1.4.9c.4.4.7.8.9 1.4.2.5.3 1.1.3 1.7 0 .6-.1 1.2-.3 1.7-.2.5-.5 1-.9 1.4-.4.4-.9.7-1.4.9-.5.2-1.1.3-1.7.3-.6 0-1.2-.1-1.8-.3-.5-.2-1-.5-1.4-.9-.4-.4-.7-.8-.9-1.4-.2-.5-.3-1.1-.3-1.7zM426.8 32.9c1.3-1.7 2.7-3 4.2-3.9s3.2-1.4 4.9-1.4c1.2 0 2.2.2 3.1.6.9.4 1.8 1 2.4 1.9.7.9 1.2 1.9 1.6 3.3.4 1.3.6 2.9.6 4.7 0 1.6-.2 3.2-.5 4.7s-.8 3-1.4 4.3c-.6 1.4-1.3 2.6-2.2 3.7-.8 1.1-1.8 2.1-2.8 2.9-1 .8-2.1 1.5-3.2 1.9-1.1.5-2.3.7-3.5.7-1.4 0-2.6-.3-3.7-.8s-2-1.3-2.8-2.2l-.2.6c-.2.7-.5 1.2-.9 1.5-.4.3-.9.5-1.7.5h-4.1l4.9-40.3h7.3l-2 17.3zm-2 16.3c.6.6 1.2.9 2 1.2.7.2 1.4.3 2.1.3 1.1 0 2.1-.3 3-1 .9-.7 1.7-1.6 2.3-2.7.6-1.1 1.2-2.4 1.5-3.8.4-1.4.5-2.9.5-4.3 0-1.9-.3-3.2-.9-4.1s-1.4-1.3-2.4-1.3c-.7 0-1.3.2-2 .7-.7.5-1.4 1.1-2 2-.7.8-1.3 1.8-1.8 2.9-.6 1.1-1 2.3-1.4 3.6l-.9 6.5zM453.4 44.4c0 4.1 1.7 6.2 5.2 6.2 1.2 0 2.1-.1 2.8-.4.7-.3 1.4-.6 1.9-1s1-.7 1.4-1c.4-.3.9-.4 1.5-.4.3 0 .5.1.7.2.2.1.4.3.6.5l1.9 2.3c-1 1-1.9 1.8-2.8 2.5-.9.7-1.9 1.3-2.9 1.7s-2 .8-3.1 1-2.3.3-3.6.3c-1.6 0-3.1-.3-4.5-.8-1.3-.6-2.5-1.3-3.5-2.4-1-1-1.7-2.2-2.2-3.7-.5-1.4-.8-3-.8-4.8 0-1.5.2-2.9.5-4.3s.8-2.7 1.4-4c.6-1.3 1.4-2.4 2.2-3.5.9-1.1 1.9-2 3-2.7 1.1-.8 2.3-1.4 3.7-1.8s2.7-.6 4.2-.6 2.7.2 3.9.6c1.1.4 2.1 1 2.8 1.6.8.7 1.3 1.4 1.7 2.3.4.8.6 1.7.6 2.5 0 1.2-.3 2.4-.8 3.4s-1.4 2-2.6 2.8c-1.3.8-3 1.5-5.1 2.1-2 .5-4.8 1-8.1 1.4zm7.3-11.7c-.8 0-1.5.2-2.2.5s-1.3.8-1.9 1.4c-.6.6-1.1 1.3-1.5 2.2-.4.8-.8 1.8-1.1 2.8 2-.3 3.6-.6 4.8-.9 1.2-.3 2.2-.7 2.9-1.1.7-.4 1.1-.8 1.4-1.3.2-.4.3-.9.3-1.5 0-.3-.1-.5-.2-.8-.1-.3-.3-.5-.5-.7-.2-.2-.5-.4-.8-.5-.3 0-.7-.1-1.2-.1z"/><path class="st3" d="M145.9 70.7l-3.6 11.1h-1.6c-.2 0-.3-.1-.4-.4l-2.5-7.6c-.1-.2-.1-.3-.1-.5s-.1-.3-.1-.5c0 .2-.1.3-.1.5s-.1.3-.1.5l-2.5 7.5c-.1.2-.2.4-.4.4H133l-3.6-11.1h1.5c.2 0 .3 0 .4.1s.2.2.2.3l2.1 7.2.3 1.5c.1-.2.1-.5.2-.7.1-.2.1-.5.2-.8l2.4-7.2c0-.1.1-.2.2-.3.1-.1.2-.1.3-.1h.9c.1 0 .3 0 .4.1.1.1.2.2.2.3l2.3 7.2c.1.3.2.5.2.8.1.2.1.5.2.7 0-.2.1-.5.1-.7.1-.2.1-.5.2-.8l2.2-7.2c0-.1.1-.2.2-.3.1-.1.2-.1.4-.1h1.4zM156.7 80.3c-.2.3-.5.5-.9.8-.3.2-.7.4-1.1.5l-1.2.3c-.4.1-.8.1-1.2.1-.8 0-1.5-.1-2.1-.4s-1.2-.6-1.7-1.1-.8-1.1-1.1-1.9-.4-1.6-.4-2.6c0-.8.1-1.5.4-2.2.2-.7.6-1.3 1-1.8s1-.9 1.6-1.2c.6-.3 1.4-.4 2.2-.4.7 0 1.3.1 1.9.3.6.2 1.1.5 1.5 1 .4.4.7.9 1 1.6.2.6.4 1.3.4 2.1 0 .3 0 .5-.1.6-.1.1-.2.2-.4.2H149c0 .7.1 1.3.3 1.8.2.5.4 1 .7 1.3.3.3.7.6 1.1.8s.9.3 1.4.3c.5 0 .9-.1 1.3-.2s.7-.2.9-.4c.3-.1.5-.3.6-.4.2-.1.3-.2.4-.2.2 0 .3.1.4.2l.6.9zm-1.5-5.3c0-.5-.1-.9-.2-1.2-.1-.4-.3-.7-.6-1-.2-.3-.5-.5-.9-.6s-.8-.2-1.2-.2c-.9 0-1.7.3-2.2.8-.5.5-.9 1.3-1 2.3h6.1zM161.3 72.3c.5-.5 1-1 1.6-1.3s1.3-.5 2-.5 1.2.1 1.8.4c.5.2 1 .6 1.3 1.1.4.5.6 1 .8 1.7.2.7.3 1.4.3 2.3 0 .9-.1 1.7-.3 2.5-.2.7-.5 1.4-1 1.9-.4.5-.9.9-1.5 1.2-.6.3-1.3.4-2 .4s-1.4-.1-1.9-.4c-.5-.3-.9-.7-1.3-1.2l-.1 1c-.1.3-.2.4-.5.4h-1.3V65.6h2v6.7zm0 6.8c.4.5.8.8 1.2 1 .4.2.9.3 1.4.3 1 0 1.9-.4 2.4-1.1s.8-1.8.8-3.3c0-1.4-.2-2.4-.7-3-.5-.6-1.2-1-2.1-1-.6 0-1.2.1-1.7.4s-.9.7-1.3 1.2v5.5zM180.9 65.6v16.2h-1.2c-.3 0-.5-.1-.5-.4L179 80c-.5.6-1 1-1.6 1.4-.6.4-1.3.5-2.1.5-.6 0-1.2-.1-1.7-.4s-1-.6-1.3-1.1-.6-1.1-.8-1.8c-.2-.7-.3-1.5-.3-2.5 0-.8.1-1.6.3-2.3.2-.7.5-1.3.9-1.8s.9-.9 1.5-1.2 1.3-.4 2-.4 1.3.1 1.8.3.9.6 1.3 1v-6.2h1.9zm-2 7.7c-.4-.5-.8-.8-1.2-1s-.9-.3-1.4-.3c-1 0-1.8.4-2.4 1.1-.6.7-.8 1.8-.8 3.2 0 .7.1 1.3.2 1.9.1.5.3.9.5 1.3.2.3.5.6.9.7.4.2.8.2 1.2.2.6 0 1.2-.1 1.7-.4.5-.3.9-.7 1.3-1.2v-5.5zM193.1 80.3c-.2.3-.5.5-.9.8-.3.2-.7.4-1.1.5l-1.2.3c-.4.1-.8.1-1.2.1-.8 0-1.5-.1-2.1-.4s-1.2-.6-1.7-1.1-.8-1.1-1.1-1.9-.4-1.6-.4-2.6c0-.8.1-1.5.4-2.2.2-.7.6-1.3 1-1.8s1-.9 1.6-1.2c.6-.3 1.4-.4 2.2-.4.7 0 1.3.1 1.9.3.6.2 1.1.5 1.5 1 .4.4.7.9 1 1.6.2.6.4 1.3.4 2.1 0 .3 0 .5-.1.6-.1.1-.2.2-.4.2h-7.4c0 .7.1 1.3.3 1.8.2.5.4 1 .7 1.3.3.3.7.6 1.1.8s.9.3 1.4.3c.5 0 .9-.1 1.3-.2s.7-.2.9-.4c.3-.1.5-.3.6-.4.2-.1.3-.2.4-.2.2 0 .3.1.4.2l.5.9zm-1.6-5.3c0-.5-.1-.9-.2-1.2-.1-.4-.3-.7-.6-1-.2-.3-.5-.5-.9-.6s-.8-.2-1.2-.2c-.9 0-1.7.3-2.2.8-.5.5-.9 1.3-1 2.3h6.1zM202.1 72.5c-.1.2-.2.2-.4.2-.1 0-.2 0-.4-.1-.1-.1-.3-.2-.5-.3s-.4-.2-.7-.3c-.3-.1-.6-.1-1-.1-.3 0-.6 0-.9.1-.3.1-.5.2-.7.3-.2.1-.3.3-.4.5s-.1.4-.1.6c0 .3.1.5.2.7s.4.4.7.5c.3.1.6.3.9.4.3.1.7.2 1.1.3.4.1.7.3 1.1.4.3.1.7.3.9.5.3.2.5.5.7.8s.2.7.2 1.1c0 .5-.1 1-.3 1.4-.2.4-.5.8-.8 1.1-.4.3-.8.6-1.3.8-.5.2-1.1.3-1.8.3-.8 0-1.5-.1-2.1-.4-.6-.3-1.2-.6-1.6-1l.5-.7c.1-.1.1-.2.2-.2.1-.1.2-.1.3-.1.1 0 .3.1.4.2.1.1.3.2.5.3.2.1.5.2.8.3.3.1.7.2 1.1.2.4 0 .7 0 1-.1.3-.1.5-.2.7-.4.2-.2.3-.4.4-.6.1-.2.1-.5.1-.7 0-.3-.1-.6-.2-.8s-.4-.4-.7-.5c-.3-.1-.6-.3-.9-.4-.3-.1-.7-.2-1.1-.3-.4-.1-.7-.3-1.1-.4-.3-.2-.7-.3-.9-.6-.3-.2-.5-.5-.7-.8-.2-.3-.2-.7-.2-1.2 0-.4.1-.8.3-1.2.2-.4.4-.7.8-1 .3-.3.8-.5 1.2-.7.5-.2 1.1-.3 1.7-.3.7 0 1.4.1 2 .3.6.2 1.1.5 1.5 1l-.5.9zM207.7 67.2c0 .2 0 .4-.1.5-.1.2-.2.3-.3.4-.1.1-.3.2-.5.3-.2.1-.4.1-.5.1-.2 0-.4 0-.5-.1-.2-.1-.3-.2-.4-.3s-.2-.3-.3-.4-.1-.3-.1-.5 0-.4.1-.5.2-.3.3-.5c.1-.1.3-.2.4-.3s.3-.1.5-.1.4 0 .5.1.3.2.5.3c.1.1.2.3.3.5.1.1.1.3.1.5zm-.4 3.5v11.1h-2V70.7h2zM219.9 71.1v.7c0 .2-.2.4-.5.5l-1.3.2c.2.5.4 1 .4 1.6 0 .5-.1 1-.3 1.5-.2.4-.5.8-.9 1.1s-.8.6-1.3.7c-.5.2-1.1.3-1.7.3-.5 0-1-.1-1.5-.2-.2.1-.4.3-.5.5s-.2.3-.2.5c0 .3.1.5.3.6s.5.2.9.3c.4.1.8.1 1.2.1.5 0 .9 0 1.4.1.5 0 .9.1 1.4.2.5.1.9.2 1.2.4.4.2.6.4.9.8s.3.7.3 1.3c0 .5-.1.9-.4 1.4s-.6.8-1 1.2c-.4.3-1 .6-1.6.8-.6.2-1.4.3-2.2.3s-1.5-.1-2.1-.2c-.6-.2-1.1-.4-1.5-.6-.4-.3-.7-.6-.9-.9-.2-.4-.3-.7-.3-1.1 0-.5.2-1 .5-1.4.3-.4.8-.7 1.4-.9-.3-.1-.6-.3-.8-.6s-.3-.6-.3-1c0-.2 0-.3.1-.5s.1-.3.3-.5c.1-.2.3-.3.4-.5.2-.2.4-.3.6-.4-.5-.3-1-.7-1.3-1.2s-.5-1.1-.5-1.8c0-.5.1-1 .3-1.5.2-.4.5-.8.9-1.1s.8-.6 1.3-.7c.5-.2 1.1-.3 1.7-.3.5 0 .9.1 1.4.2s.8.3 1.1.5h3.1zm-2 11.3c0-.3-.1-.5-.2-.7-.2-.2-.4-.3-.6-.4-.3-.1-.6-.2-.9-.2-.3 0-.7-.1-1.1-.1-.4 0-.8 0-1.2-.1s-.8-.1-1.1-.1c-.4.2-.7.4-1 .7s-.4.6-.4 1c0 .2.1.5.2.7.1.2.3.4.6.6.3.2.6.3 1 .4.4.1.9.1 1.4.1.5 0 1 0 1.4-.1s.8-.2 1.1-.4c.3-.2.5-.4.7-.6 0-.2.1-.5.1-.8zm-3.5-6c.4 0 .7-.1 1-.2.3-.1.6-.3.8-.5.2-.2.4-.4.5-.7.1-.3.2-.6.2-.9 0-.7-.2-1.2-.6-1.6-.4-.4-1-.6-1.8-.6s-1.4.2-1.8.6c-.4.4-.6.9-.6 1.6 0 .3.1.6.2.9.1.3.3.5.5.7.2.2.5.4.8.5 0 .1.4.2.8.2zM223.8 72.3c.2-.3.5-.5.8-.7l.9-.6c.3-.2.6-.3 1-.4s.7-.1 1.1-.1c.6 0 1.1.1 1.6.3.5.2.9.5 1.2.9.3.4.5.8.7 1.3.2.5.2 1.1.2 1.7v7.1h-2v-7.1c0-.8-.2-1.5-.6-2-.4-.5-1-.7-1.8-.7-.6 0-1.1.1-1.6.4-.5.3-1 .7-1.4 1.1v8.2h-2v-11h1.2c.3 0 .5.1.5.4l.2 1.2zM253.8 81.8h-1.9c-.2 0-.4 0-.5-.1-.1-.1-.3-.2-.4-.3l-1.6-1.6c-.7.7-1.5 1.2-2.4 1.6-.9.4-1.9.6-3 .6-.6 0-1.2-.1-1.7-.3-.6-.2-1.1-.5-1.5-.9-.4-.4-.8-.8-1.1-1.4-.3-.5-.4-1.2-.4-1.8 0-.5.1-1 .3-1.5.2-.5.4-.9.7-1.3.3-.4.7-.7 1.1-1s.9-.6 1.4-.8c-.4-.6-.8-1.1-1-1.7s-.3-1.1-.3-1.7c0-.5.1-1 .3-1.5s.5-.9.8-1.2c.4-.3.8-.6 1.3-.8.5-.2 1.1-.3 1.8-.3.6 0 1.1.1 1.6.3s.9.4 1.2.7.6.7.8 1.1c.2.4.3.8.3 1.3l-1.2.2c-.2.1-.4-.1-.5-.3-.1-.2-.1-.4-.2-.6-.1-.2-.3-.4-.4-.6-.2-.2-.4-.3-.6-.4-.3-.1-.5-.2-.9-.2s-.7.1-1 .2-.6.3-.8.5-.4.5-.5.7c-.1.3-.2.6-.2.9 0 .3 0 .5.1.7.1.2.2.5.3.7.1.2.3.5.5.7s.4.5.7.8l4.5 4.6c.3-.5.5-1 .7-1.6s.3-1.1.3-1.6c0-.1.1-.2.1-.3.1-.1.2-.1.3-.1h1.2c0 .8-.1 1.7-.4 2.5-.3.8-.6 1.6-1.1 2.3l3.3 3.5zm-10.1-7.7c-.8.4-1.4.9-1.8 1.5-.4.6-.6 1.2-.6 1.9 0 .5.1.9.3 1.3.2.4.4.7.7.9.3.2.6.4 1 .6.4.1.7.2 1.1.2.8 0 1.6-.2 2.2-.5.7-.3 1.2-.7 1.7-1.2l-4.6-4.7zM270.5 65.6v16.2h-1.2c-.3 0-.5-.1-.5-.4l-.2-1.4c-.5.6-1 1-1.6 1.4-.6.4-1.3.5-2.1.5-.6 0-1.2-.1-1.7-.4s-1-.6-1.3-1.1c-.4-.5-.6-1.1-.8-1.8-.2-.7-.3-1.5-.3-2.5 0-.8.1-1.6.3-2.3.2-.7.5-1.3.9-1.8s.9-.9 1.5-1.2 1.3-.4 2-.4 1.3.1 1.8.3c.5.2.9.6 1.3 1v-6.2h1.9zm-2 7.7c-.4-.5-.8-.8-1.2-1-.4-.2-.9-.3-1.4-.3-1 0-1.8.4-2.4 1.1-.6.7-.8 1.8-.8 3.2 0 .7.1 1.3.2 1.9.1.5.3.9.5 1.3.2.3.5.6.9.7.4.2.8.2 1.2.2.6 0 1.2-.1 1.7-.4.5-.3.9-.7 1.3-1.2v-5.5zM282.6 80.3c-.2.3-.5.5-.9.8-.3.2-.7.4-1.1.5l-1.2.3c-.4.1-.8.1-1.2.1-.8 0-1.5-.1-2.1-.4-.6-.3-1.2-.6-1.7-1.1-.5-.5-.8-1.1-1.1-1.9-.3-.7-.4-1.6-.4-2.6 0-.8.1-1.5.4-2.2.2-.7.6-1.3 1-1.8s1-.9 1.6-1.2c.6-.3 1.4-.4 2.2-.4.7 0 1.3.1 1.9.3s1.1.5 1.5 1c.4.4.7.9 1 1.6.2.6.4 1.3.4 2.1 0 .3 0 .5-.1.6-.1.1-.2.2-.4.2H275c0 .7.1 1.3.3 1.8.2.5.4 1 .7 1.3.3.3.7.6 1.1.8.4.2.9.3 1.4.3.5 0 .9-.1 1.3-.2s.7-.2.9-.4c.3-.1.5-.3.6-.4.2-.1.3-.2.4-.2.2 0 .3.1.4.2l.5.9zm-1.5-5.3c0-.5-.1-.9-.2-1.2-.1-.4-.3-.7-.6-1-.2-.3-.5-.5-.9-.6-.4-.2-.8-.2-1.2-.2-.9 0-1.7.3-2.2.8-.5.5-.9 1.3-1 2.3h6.1zM294.5 70.7L290 81.8h-1.8l-4.5-11.1h1.6c.2 0 .3 0 .4.1s.2.2.2.3l2.8 7.2c.1.3.2.5.2.8.1.3.1.5.2.8.1-.3.1-.5.2-.8.1-.3.1-.5.2-.8l2.9-7.2c0-.1.1-.2.2-.3.1-.1.2-.1.4-.1h1.5zM305.1 80.3c-.2.3-.5.5-.9.8-.3.2-.7.4-1.1.5l-1.2.3c-.4.1-.8.1-1.2.1-.8 0-1.5-.1-2.1-.4-.6-.3-1.2-.6-1.7-1.1-.5-.5-.8-1.1-1.1-1.9-.3-.7-.4-1.6-.4-2.6 0-.8.1-1.5.4-2.2.2-.7.6-1.3 1-1.8s1-.9 1.6-1.2c.6-.3 1.4-.4 2.2-.4.7 0 1.3.1 1.9.3s1.1.5 1.5 1c.4.4.7.9 1 1.6.2.6.4 1.3.4 2.1 0 .3 0 .5-.1.6-.1.1-.2.2-.4.2h-7.4c0 .7.1 1.3.3 1.8.2.5.4 1 .7 1.3.3.3.7.6 1.1.8.4.2.9.3 1.4.3.5 0 .9-.1 1.3-.2s.7-.2.9-.4c.3-.1.5-.3.6-.4.2-.1.3-.2.4-.2.2 0 .3.1.4.2l.5.9zm-1.6-5.3c0-.5-.1-.9-.2-1.2-.1-.4-.3-.7-.6-1-.2-.3-.5-.5-.9-.6-.4-.2-.8-.2-1.2-.2-.9 0-1.7.3-2.2.8-.5.5-.9 1.3-1 2.3h6.1zM309.7 65.6v16.2h-2V65.6h2zM317.6 70.5c.8 0 1.5.1 2.2.4.7.3 1.2.7 1.7 1.2s.8 1.1 1.1 1.8c.2.7.4 1.5.4 2.4 0 .9-.1 1.7-.4 2.4-.2.7-.6 1.3-1.1 1.8s-1 .9-1.7 1.1c-.7.3-1.4.4-2.2.4-.8 0-1.6-.1-2.2-.4s-1.2-.7-1.7-1.1c-.5-.5-.8-1.1-1.1-1.8-.2-.7-.4-1.5-.4-2.4 0-.9.1-1.7.4-2.4.2-.7.6-1.3 1.1-1.8.5-.5 1-.9 1.7-1.2.7-.3 1.4-.4 2.2-.4zm0 10c1.1 0 1.9-.4 2.5-1.1s.8-1.8.8-3.1-.3-2.4-.8-3.1-1.4-1.1-2.5-1.1c-.6 0-1 .1-1.5.3-.4.2-.8.5-1 .8-.3.4-.5.8-.6 1.3s-.2 1.1-.2 1.8c0 1.3.3 2.3.8 3.1.6.7 1.4 1.1 2.5 1.1zM327.3 72.4c.5-.6 1-1 1.6-1.4s1.3-.5 2.1-.5c.6 0 1.2.1 1.7.4.5.2 1 .6 1.3 1.1.4.5.6 1.1.8 1.8.2.7.3 1.5.3 2.5 0 .8-.1 1.6-.3 2.3-.2.7-.5 1.3-1 1.8-.4.5-.9.9-1.5 1.2-.6.3-1.3.4-2 .4s-1.3-.1-1.8-.3-.9-.6-1.3-1v4.9h-2V70.7h1.2c.3 0 .5.1.5.4l.4 1.3zm.1 6.7c.4.5.8.8 1.2 1 .4.2.9.3 1.4.3 1 0 1.8-.4 2.4-1.1.6-.7.8-1.8.8-3.2 0-.7-.1-1.3-.2-1.9-.1-.5-.3-.9-.6-1.3s-.5-.6-.9-.7c-.4-.2-.8-.2-1.2-.2-.6 0-1.2.1-1.7.4s-.9.7-1.3 1.2v5.5zM337.8 81.8V70.7h1.2c.3 0 .5.1.5.4l.1 1.1c.4-.5.9-.9 1.4-1.2.5-.3 1.1-.5 1.8-.5s1.4.2 1.8.6c.5.4.8 1 1 1.7.2-.4.4-.8.6-1s.5-.5.9-.7c.3-.2.7-.3 1-.4s.7-.1 1.1-.1c.6 0 1.1.1 1.6.3.5.2.8.5 1.2.8.3.4.6.8.7 1.3.2.5.3 1.1.3 1.8v7.1h-2v-7.1c0-.9-.2-1.5-.6-2-.4-.5-.9-.7-1.7-.7-.3 0-.6.1-.9.2-.3.1-.5.3-.8.5-.2.2-.4.5-.5.8-.1.3-.2.7-.2 1.2v7.1h-2v-7.1c0-.9-.2-1.6-.5-2-.4-.4-.9-.7-1.6-.7-.5 0-.9.1-1.3.4-.4.3-.8.6-1.1 1.1v8.3h-2zM364.9 80.3c-.2.3-.5.5-.9.8-.3.2-.7.4-1.1.5l-1.2.3c-.4.1-.8.1-1.2.1-.8 0-1.5-.1-2.1-.4-.6-.3-1.2-.6-1.7-1.1-.5-.5-.8-1.1-1.1-1.9-.3-.7-.4-1.6-.4-2.6 0-.8.1-1.5.4-2.2.2-.7.6-1.3 1-1.8s1-.9 1.6-1.2c.6-.3 1.4-.4 2.2-.4.7 0 1.3.1 1.9.3s1.1.5 1.5 1c.4.4.7.9 1 1.6.2.6.4 1.3.4 2.1 0 .3 0 .5-.1.6-.1.1-.2.2-.4.2h-7.4c0 .7.1 1.3.3 1.8.2.5.4 1 .7 1.3.3.3.7.6 1.1.8.4.2.9.3 1.4.3.5 0 .9-.1 1.3-.2s.7-.2.9-.4c.3-.1.5-.3.6-.4.2-.1.3-.2.4-.2.2 0 .3.1.4.2l.5.9zm-1.6-5.3c0-.5-.1-.9-.2-1.2-.1-.4-.3-.7-.6-1-.2-.3-.5-.5-.9-.6-.4-.2-.8-.2-1.2-.2-.9 0-1.7.3-2.2.8-.5.5-.9 1.3-1 2.3h6.1zM369.4 72.3c.2-.3.5-.5.8-.7l.9-.6c.3-.2.6-.3 1-.4.3-.1.7-.1 1.1-.1.6 0 1.1.1 1.6.3s.9.5 1.2.9c.3.4.5.8.7 1.3.2.5.2 1.1.2 1.7v7.1h-2v-7.1c0-.8-.2-1.5-.6-2-.4-.5-1-.7-1.8-.7-.6 0-1.1.1-1.6.4-.5.3-1 .7-1.4 1.1v8.2h-2v-11h1.2c.3 0 .5.1.5.4l.2 1.2zM383.1 82c-.9 0-1.6-.2-2-.7s-.7-1.2-.7-2.1v-6.8H379c-.1 0-.2 0-.3-.1-.1-.1-.1-.2-.1-.3v-.8l1.8-.2.5-3.4c0-.1.1-.2.1-.3.1-.1.2-.1.3-.1h1V71h3.2v1.4h-3.2V79c0 .5.1.8.3 1 .2.2.5.3.9.3.2 0 .4 0 .5-.1.2-.1.3-.1.4-.2s.2-.1.3-.2.1-.1.2-.1.2.1.3.2l.6.9c-.3.3-.7.6-1.2.7-.5.4-1 .5-1.5.5z"/></g></svg>