<svg version="1.1" id="Layer_1" xmlns="http://www.w3.org/2000/svg" x="0" y="0" viewBox="0 0 131.4 126.2" xml:space="preserve" ><style>.st0{fill:#fff}</style><path class="st0" d="M52.8 63.2H32.9L25.3 100c-.3 1.2-.5 2.2-.6 3-.1.9-.2 1.6-.2 2.2 0 1.9.5 3.3 1.6 4.1 1.1.8 2.9 1.1 5.5 1.1 1.8 0 4.1-.2 6.9-.6 2.8-.4 5.3-.9 7.5-1.4l-3.1 15.5c-2.5.7-5.3 1.2-8.2 1.6-3 .4-5.8.6-8.4.6-3.6 0-6.8-.4-9.4-1.1-2.6-.8-4.8-1.9-6.5-3.3-1.7-1.4-3-3.2-3.8-5.2-.8-2.1-1.2-4.4-1.2-6.9 0-.9.1-2 .2-3.2.1-1.2.3-2.7.7-4.5l8.1-38.8H0l3.2-15.4h14.2l4.5-21.4h18.6l-4.4 21.4H56l-3.2 15.5zM89.8 33.8c-1 4.2-2 8.1-3 11.8h.3c1-1.1 2.1-2.2 3.5-3.3 1.3-1 2.8-2 4.5-2.9 1.7-.9 3.5-1.5 5.5-2.1 2-.5 4.1-.8 6.4-.8 3.3 0 6.5.6 9.5 1.8 3 1.2 5.6 2.9 7.8 5.3 2.2 2.3 3.9 5.2 5.2 8.7 1.3 3.5 1.9 7.5 1.9 12.2 0 4-.4 8.1-1.2 12.3-.8 4.2-2 8.3-3.5 12.4-1.6 4-3.6 7.8-6.1 11.4-2.5 3.5-5.4 6.7-8.7 9.3-3.4 2.7-7.2 4.8-11.5 6.4-4.3 1.6-9.1 2.3-14.5 2.3-4.2 0-7.9-.6-11.2-1.9-3.3-1.3-6.1-3-8.3-5.2-2.3-2.2-4-4.8-5.2-7.8-1.2-3-1.8-6.3-1.8-9.7 0-1.4.1-2.8.2-4.3.2-1.5.5-3.4 1-5.8L78 0h19l-7.2 33.8zM79.1 86.1c-.3 1.6-.5 2.9-.6 3.7-.1.9-.1 1.7-.1 2.4 0 3.3.8 5.9 2.4 7.8 1.6 2 3.9 2.9 7 2.9 2.6 0 5-.6 7.2-1.7s4.2-2.6 6-4.5c1.8-1.9 3.4-4.1 4.8-6.6s2.6-5.1 3.5-7.9c.9-2.8 1.6-5.6 2.1-8.4.5-2.8.7-5.5.7-8 0-1.8-.2-3.6-.6-5.2-.4-1.6-1-3.1-1.9-4.3-.8-1.3-1.9-2.3-3.3-3-1.4-.7-3-1.1-4.9-1.1-1.8 0-3.7.4-5.7 1.1-2 .8-3.9 2-5.7 3.6-1.8 1.7-3.4 3.8-4.9 6.3-1.5 2.6-2.6 5.6-3.3 9.3l-2.7 13.6z"/></svg>